<?xml version="1.0" encoding="utf-8"?>
<!-- Generator: Adobe Illustrator 23.0.4, SVG Export Plug-In . SVG Version: 6.00 Build 0)  -->
<svg version="1.1" id="Layer_1" xmlns="http://www.w3.org/2000/svg" xmlns:xlink="http://www.w3.org/1999/xlink" x="0px" y="0px"
	 viewBox="0 0 215.01 133.88" style="enable-background:new 0 0 215.01 133.88;" xml:space="preserve">
<style type="text/css">
	.st0{fill:#FDFEFF;}
</style>
<g>
	<g>
		<path class="st0" d="M35.71,44.17c-2.71,0.37-5.47,0.53-8.13,1.15C9,49.65-2.41,67.68,0.43,85.56
			c3.39,21.29,14.3,37.24,33.21,47.69c1.58,0.88,2.83,0.81,4.37-0.05c18.98-10.53,30.01-26.56,33.13-48
			C74.31,63.54,57.63,44.36,35.71,44.17z M31.71,105.26C16.75,107.78,5.98,93.81,8.65,82.22c6.94-0.94,12.95,1.01,17.77,6.14
			C30.87,93.12,32.6,98.82,31.71,105.26z M40.08,105.33c-2.61-11.66,8.22-25.55,22.84-23.02C65.64,92.99,55.63,107.67,40.08,105.33z
			"/>
	</g>
	<g>
		<path class="st0" d="M107.44,44.17c-2.71,0.37-5.47,0.53-8.13,1.15c-18.58,4.33-29.99,22.36-27.15,40.24
			c3.39,21.29,14.3,37.24,33.21,47.69c1.58,0.88,2.83,0.81,4.37-0.05c18.98-10.53,30.01-26.56,33.13-48
			C146.05,63.54,129.36,44.36,107.44,44.17z M103.45,105.26c-14.97,2.53-25.73-11.44-23.07-23.04c6.94-0.94,12.95,1.01,17.77,6.14
			C102.61,93.12,104.33,98.82,103.45,105.26z M111.82,105.33c-2.61-11.66,8.22-25.55,22.84-23.02
			C137.38,92.99,127.36,107.67,111.82,105.33z"/>
	</g>
	<g>
		<path class="st0" d="M179.18,44.17c-2.71,0.37-5.47,0.53-8.13,1.15c-18.58,4.33-29.99,22.36-27.15,40.24
			c3.39,21.29,14.3,37.24,33.21,47.69c1.58,0.88,2.83,0.81,4.37-0.05c18.98-10.53,30.01-26.56,33.13-48
			C217.78,63.54,201.1,44.36,179.18,44.17z M175.19,105.26c-14.97,2.53-25.73-11.44-23.07-23.04c6.94-0.94,12.95,1.01,17.77,6.14
			C174.35,93.12,176.07,98.82,175.19,105.26z M183.55,105.33c-2.61-11.66,8.22-25.55,22.84-23.02
			C209.12,92.99,199.1,107.67,183.55,105.33z"/>
	</g>
	<g>
		<path class="st0" d="M83.52,0c-1.83,0.25-3.68,0.36-5.47,0.78C65.54,3.69,57.86,15.83,59.77,27.87
			c2.28,14.33,9.63,25.07,22.36,32.11c1.07,0.59,1.91,0.54,2.94-0.03c12.78-7.09,20.2-17.88,22.31-32.31
			C109.5,13.04,98.27,0.13,83.52,0z M80.83,41.12c-10.08,1.7-17.32-7.7-15.53-15.51c4.67-0.63,8.72,0.68,11.96,4.14
			C80.26,32.95,81.42,36.79,80.83,41.12z M86.46,41.18c-1.76-7.85,5.54-17.2,15.38-15.5C103.67,32.87,96.93,42.75,86.46,41.18z"/>
	</g>
	<g>
		<path class="st0" d="M131.45,0c-1.83,0.25-3.68,0.36-5.47,0.78c-12.51,2.92-20.19,15.05-18.28,27.09
			c2.28,14.33,9.63,25.07,22.36,32.11c1.07,0.59,1.91,0.54,2.94-0.03c12.78-7.09,20.2-17.88,22.31-32.31
			C157.44,13.04,146.21,0.13,131.45,0z M128.76,41.12c-10.08,1.7-17.32-7.7-15.53-15.51c4.67-0.63,8.72,0.68,11.96,4.14
			C128.2,32.95,129.36,36.79,128.76,41.12z M134.4,41.18c-1.76-7.85,5.54-17.2,15.38-15.5C151.61,32.87,144.86,42.75,134.4,41.18z"
			/>
	</g>
	<g>
		<path class="st0" d="M179.39,0c-1.83,0.25-3.68,0.36-5.47,0.78c-12.51,2.92-20.19,15.05-18.28,27.09
			c2.28,14.33,9.63,25.07,22.36,32.11c1.07,0.59,1.91,0.54,2.94-0.03c12.78-7.09,20.2-17.88,22.31-32.31
			C205.38,13.04,194.15,0.13,179.39,0z M176.7,41.12c-10.08,1.7-17.32-7.7-15.53-15.51c4.67-0.63,8.72,0.68,11.96,4.14
			C176.14,32.95,177.3,36.79,176.7,41.12z M182.33,41.18c-1.76-7.85,5.54-17.2,15.38-15.5C199.54,32.87,192.8,42.75,182.33,41.18z"
			/>
	</g>
	<g>
		<path class="st0" d="M35.58,0c-1.83,0.25-3.68,0.36-5.47,0.78C17.6,3.69,9.92,15.83,11.83,27.87
			c2.28,14.33,9.63,25.07,22.36,32.11c1.07,0.59,1.91,0.54,2.94-0.03c12.78-7.09,20.2-17.88,22.31-32.31
			C61.57,13.04,50.34,0.13,35.58,0z M32.89,41.12c-10.08,1.7-17.32-7.7-15.53-15.51c4.67-0.63,8.72,0.68,11.96,4.14
			C32.33,32.95,33.49,36.79,32.89,41.12z M38.52,41.18c-1.76-7.85,5.54-17.2,15.38-15.5C55.73,32.87,48.99,42.75,38.52,41.18z"/>
	</g>
</g>
</svg>
