<?xml version="1.0" encoding="utf-8"?>
<!-- Generator: Adobe Illustrator 23.0.4, SVG Export Plug-In . SVG Version: 6.00 Build 0)  -->
<svg version="1.1" id="Layer_1" xmlns="http://www.w3.org/2000/svg" xmlns:xlink="http://www.w3.org/1999/xlink" x="0px" y="0px"
	 viewBox="0 0 185.35 126.82" style="enable-background:new 0 0 185.35 126.82;" xml:space="preserve">
<style type="text/css">
	.st0{fill:#FFFFFF;}
</style>
<g>
	<g>
		<path class="st0" d="M62.08,27.28c0,2.11,0.28,3.96-0.08,5.67c-0.36,1.71-1.35,3.28-2.33,5.52c-0.45-1.35-1.08-2.34-1.06-3.31
			c0.05-2.61,0.38-5.21,0.61-7.82c0.18-2.1,1.13-3.58,3.17-4.44c4.31-1.81,6.97-5.33,8.96-9.35c1.14-2.3,3.03-3.47,5.27-4.2
			c2.83-0.92,5.2,0.68,4.96,3.61c-0.15,1.91-0.9,3.9-1.83,5.61c-1.3,2.39-2.83,4.58-2.61,7.52c0.05,0.64-0.69,1.51-1.28,2.01
			c-4.93,4.1-4.65,9.27-1.93,14.41c0.48,0.91,0.62,2.05,0.7,3.1c0.38,4.93,1.43,9.63,4.16,13.85c1.08,1.67,2.35,2.85,4.98,2.28
			c-0.72-0.92-1.15-1.85-1.88-2.34c-2.13-1.42-2.89-3.58-3.38-5.87c-0.42-1.96-0.6-3.98-1-5.95c-0.49-2.39-0.95-4.8-1.71-7.11
			c-1.13-3.43-0.66-6.44,1.9-8.98c2.23-2.21,3.65-4.69,3.9-7.91c0.1-1.31,0.67-2.83,1.55-3.77c1.21-1.29,1.43-2.57,1.3-4.17
			c-0.09-1.15-0.06-2.33,0.05-3.48c0.21-2.13,0.77-4.07,2.75-5.36c0.82-0.54,1.46-1.38,2.12-2.14c3.67-4.24,8.39-4.97,13.54-3.92
			c3.43,0.7,4.4,2.77,3.34,6.2c-0.22,0.7-0.22,1.9,0.19,2.24c0.5,0.42,1.63,0.4,2.35,0.16c2.53-0.82,3.36-3.7,2.05-6.38
			c-0.37-0.75-0.41-1.66-0.6-2.5c0.88-0.17,1.77-0.5,2.64-0.47c2.27,0.1,4.1,1.3,5.03,3.25c0.91,1.9,1.52,4.04,1.76,6.14
			c0.41,3.49-0.59,4.16-4.01,3.07c-4.38-1.39-8.46-1.34-12.74,0.94c-2.41,1.28-5.57,1.13-8.82,1.7c0.38,0.37,0.84,0.92,1.4,1.33
			c0.73,0.53,1.53,0.96,2.58,1.6c-0.59,0.33-0.88,0.55-1.2,0.66c-3.73,1.25-4.37,2.16-4.33,6.04c0.01,0.52-0.27,1.45-0.53,1.49
			c-0.59,0.1-1.56-0.04-1.82-0.44c-0.69-1.07-1.02-2.37-1.64-3.49c-0.41-0.73-1.08-1.32-1.64-1.97c-0.33,0.87-0.98,1.76-0.9,2.59
			c0.1,1.1,0.61,2.26,1.23,3.21c1.4,2.18,1.88,4.48,1.8,7.05c-0.12,3.94,0.88,7.65,2.87,11.09c0.54,0.93,1.18,1.96,1.22,2.97
			c0.12,3.08,1.45,5.35,3.72,7.36c2.82,2.5,2.86,5.59,1.36,8.89c-1.47,3.22-3.65,5.07-7.37,5.47c-2.69,0.29-5.54,1.03-7.85,2.37
			c-5.58,3.24-10.84,0.35-12.68-3.57c-1.37-2.94-2.4-6.28-2.55-9.49c-0.26-5.76-1.48-11.15-3.92-16.33
			c-1.23-2.63-0.95-5.26,0.44-7.77C65.67,31.73,64.89,28.66,62.08,27.28z"/>
		<path class="st0" d="M35.47,51.91c0.75-1.38,1.41-2.45,1.91-3.58c0.95-2.11,1.64-4.35,2.74-6.37c1.53-2.82,3.92-3.76,7.06-3.19
			c2.09,0.38,2.73,1.36,2.2,3.47c-0.26,1.05-0.76,2.03-0.99,3.08c-0.23,1.06-0.27,2.16-0.39,3.24c0.28,0.09,0.55,0.18,0.83,0.27
			c0.56-0.94,1.21-1.84,1.65-2.83c0.63-1.4,1.01-2.93,1.68-4.31c1.22-2.51,2.99-3.05,5.57-1.87c1.79,0.82,2.51,2.99,1.69,5.16
			c-0.16,0.43-0.34,0.89-0.63,1.23c-4.49,5.2-5.25,11.52-5.47,18.01c-0.05,1.39,0.07,2.8-0.12,4.17c-0.36,2.62-2,3.78-4.23,2.47
			c-3.29-1.93-6.31-4.35-9.27-6.77c-0.88-0.72-1.94-2.09-0.52-3.39c1.07-0.97,3.54-0.45,4.65,0.62c0.8,0.77,1.89,1.24,3.04,1.35
			c-1.43-2.82-3.31-5.51-4.16-8.49c-0.85-2.94-0.66-6.18-0.93-9.29c-0.29-0.06-0.58-0.12-0.86-0.17c-0.32,0.95-0.82,1.88-0.91,2.85
			c-0.17,2-0.01,4.02-0.17,6.02c-0.25,3.03-1.58,4.74-3.63,4.98c-2.62,0.31-5.69-1.45-6.4-3.97c-0.43-1.52-0.32-3.19-0.44-4.79
			c-0.06-0.76-0.1-1.51-0.15-2.27c-0.2-0.05-0.4-0.11-0.59-0.16c-0.37,0.42-0.68,0.95-1.13,1.24c-0.65,0.41-1.46,1.02-2.1,0.91
			c-3.98-0.66-6.96,0.61-8.92,4.18c-0.18,0.33-0.46,0.62-0.74,0.88c-0.21,0.19-0.49,0.3-1.24,0.75c0.23-1.14,0.29-1.85,0.52-2.5
			c1.5-4.2,3.49-7.99,7.13-10.89c2.45-1.95,4.48-4.47,6.52-6.88c1.2-1.42,2.5-1.78,3.76-0.58c3.71,3.53,5.03,4.35,3.76,9.79
			c-0.51,2.17-0.84,4.39-1.21,6.59C34.92,51.05,35.13,51.26,35.47,51.91z"/>
		<path class="st0" d="M25.62,78.66c-5.44,4.29-10.81,8.8-18.91,6.06c0.15,2.56,1.75,3.01,3.47,3.2c4.21,0.48,9.71-1.02,14.14-3.83
			c0.36,2.19,0.55,4.38,1.12,6.47c0.52,1.94,2.14,3.67,0.44,5.81c-1.78,2.24-4.13,3.14-6.88,3.27c-3.98,0.18-7.69-0.9-11.04-2.94
			c-2.95-1.79-3.89-4.73-4.16-8.1c-0.15-1.89-0.84-3.8-1.65-5.54c-0.75-1.63-0.34-2.47,1.67-3.07c1.65-0.49,3.33-1.15,4.75-2.11
			c1.36-0.91,1.67-2.28,0.97-4.07c-0.65-1.65-0.82-3.59-0.79-5.39c0.04-1.83,1.14-3.17,3.1-3.51c1.96-0.34,3.33,0.54,4.13,2.24
			c0.45,0.96,0.73,2.04,0.87,3.1c0.58,4.52,2.76,6.76,7.33,7.39c0.38,0.05,0.75,0.11,1.13,0.16C25.42,78.08,25.52,78.37,25.62,78.66
			z"/>
		<path class="st0" d="M32.7,60.65c1.08,0.9,2.13,1.54,2.88,2.44c1.08,1.3,1.97,2.76,2.9,4.19c2.38,3.67,5.46,6.17,9.99,6.8
			c3.53,0.49,6.31,3.92,6.46,7.78c-1.06-0.08-2.17,0.05-3.09-0.29c-2.6-0.96-5.3-1.83-7.63-3.27c-4.07-2.51-8.26-3.18-12.88-2.22
			c-6.49,1.35-11.98-3.13-11.45-9.43c0.13-1.51,1.21-2.92,1.74-4.41c0.24-0.68,0.21-1.46,0.3-2.19c-0.76,0.07-1.72-0.13-2.25,0.26
			c-1.04,0.77-1.74,1.98-2.77,2.76c-0.56,0.42-1.5,0.34-2.27,0.48c-0.17-0.91-0.8-2.24-0.42-2.67c2.14-2.4,4.35-4.8,6.87-6.77
			c1.76-1.38,3.8-0.68,5.49,1.35c2.57,3.09,3.4,6.7,2.81,10.64c-0.19,1.26-0.48,2.5-0.77,3.98C31.31,68.34,31.71,67.4,32.7,60.65z"
			/>
		<path class="st0" d="M53.34,86.44c-2,0.63-3.97,1.68-5.99,1.79c-3.67,0.2-7.37-0.15-11.05-0.28c-1.1-0.04-2.2-0.11-3.3-0.17
			c-0.09,0.3-0.18,0.61-0.26,0.91c1.46,0.64,2.87,1.66,4.38,1.83c2.96,0.35,5.98,0.18,8.97,0.33c0.68,0.03,1.46,0.38,1.94,0.85
			c0.18,0.18-0.31,1.12-0.57,1.67c-0.35,0.75-0.93,1.43-1.15,2.22c-0.93,3.21-2.32,4.66-5.64,4.77c-2.76,0.09-5.53-0.37-8.29-0.59
			c-1.97-0.16-2.84-1.4-3.04-3.2c-0.11-0.99-0.29-2.07-0.03-2.99c0.51-1.87,0.02-3.41-0.77-5.08c-0.57-1.21-0.84-2.67-0.85-4.03
			c-0.04-3.62,1.83-5.74,5.43-5.71c2.32,0.02,4.71,0.62,6.94,1.36c3.42,1.13,6.74,2.59,10.09,3.93c1.08,0.43,2.13,0.95,3.2,1.44
			C53.33,85.8,53.33,86.12,53.34,86.44z"/>
		<path class="st0" d="M83.27,7.27c-2.42-0.27-4.63-0.71-6.85-0.71c-3.99,0.01-7.06,2.32-8.34,6.12c-0.99,2.95-2.99,4.76-5.83,5.85
			c-5.85,2.24-6.79,4.26-6.05,10.47c0.25,2.08-0.48,4.41-1.26,6.42c-0.69,1.77-2.34,1.91-3.5,0.44c-1.95-2.48-3.98-4.99-5.42-7.77
			c-2.2-4.26,0.91-8.3,5.71-7.79c4.37,0.47,6.52-1.26,7.05-5.64c0.15-1.22,0.1-2.51,0.49-3.65c0.66-1.94,1.62-3.5,4.13-3.76
			c1.5-0.15,3.02-1.11,4.32-2.02c4.14-2.92,8.64-3.7,13.44-2.34C83.8,3.64,84.35,5.08,83.27,7.27z"/>
		<path class="st0" d="M66.23,77.5c0.66-0.61,1.38-1.16,1.95-1.84c0.64-0.76,1.07-1.71,1.75-2.43c0.4-0.42,1.36-0.92,1.64-0.74
			c0.61,0.4,1.47,1.44,1.31,1.84c-0.65,1.55-1.4,3.21-2.6,4.31c-0.92,0.85-2.54,1.18-3.89,1.3c-8.18,0.76-10.17-1.46-10.78-8.64
			c-0.62-7.29,1.43-14.1,4.28-20.68c0.37-0.86,1.67-1.32,2.54-1.96c0.47,0.89,1.39,1.81,1.33,2.66c-0.34,5,1.13,9.64,2.59,14.29
			c1.01,3.21,2.12,6.36-0.48,9.41c-0.37,0.43-0.27,1.27-0.39,1.92C65.73,77.12,65.98,77.31,66.23,77.5z"/>
		<path class="st0" d="M172.48,71.23c-1.18,1.05-2.49,2-3.52,3.19c-1.2,1.37-2.32,1.5-3.84,0.58c-4.01-2.43-5.8-2.3-9.29,0.44
			c-0.41,0.32-0.93,0.5-1.41,0.75c-1.36-1.65-0.64-2.81,0.76-3.71c0.97-0.62,2.17-0.91,3.07-1.6c1.19-0.92,2.48-1.92,3.18-3.2
			c0.88-1.63,2-2.17,3.71-2.13c4.87,0.1,8.56,2.67,10.15,7.25c0.61,1.75,1.16,3.52,1.65,5.3c1.01,3.64,0.16,6.95-2.16,9.8
			c-1.82,2.23-3.27,4.49-3.04,7.52c0.02,0.31-0.31,0.66-0.47,0.98c-0.24,0.07-0.49,0.13-0.73,0.2c-0.63-1.89-1.49-3.73-1.82-5.67
			c-0.43-2.5-0.47-5.08-0.61-7.62c-0.18-3.18,0.18-6.12,3.03-8.3c0.93-0.71,1.4-2.04,2.08-3.09
			C172.97,71.69,172.72,71.46,172.48,71.23z"/>
		<path class="st0" d="M176.4,45.94c0.8,1.29,1.77,2.51,2.38,3.89c5.37,12.18,7.77,24.87,5.99,38.16c-0.26,1.95-1.03,3.87-1.78,5.72
			c-0.42,1.04-1.16,2.04-2,2.79c-1.34,1.22-3.11,2.29-4.8,1.15c-1.71-1.15-0.66-2.97-0.07-4.42c0.55-1.35,1.18-2.77,2.14-3.82
			c1.84-2.01,2.34-4.34,2.15-6.86c-0.27-3.6-0.67-7.19-1.16-10.77c-0.13-0.95-0.66-1.92-1.23-2.71c-1.11-1.53-0.84-2.98,0.56-3.8
			c1.6-0.94,1.37-2.1,0.96-3.34c-0.36-1.09-0.8-2.24-1.52-3.1c-3.26-3.86-1.55-8.46-2.59-12.64
			C175.75,46.12,176.08,46.03,176.4,45.94z"/>
		<path class="st0" d="M159.74,83.09c-0.45,0.8-1.22,1.57-1.29,2.4c-0.21,2.76-0.18,5.54-0.21,8.32c0,0.38,0.1,0.77,0.24,1.12
			c0.41,1.02,1.92,1.58,0.79,3.18c-2.18,3.08-3.78,4.5-5.35,4.58c0.06-6.25,0.14-12.53,0.19-18.81c0.05-4.99,5.42-8.19,9.61-5.56
			c0.85,0.53,1.44,2,1.55,3.09c0.23,2.29-0.16,4.65,0.1,6.94c0.24,2.11,1.04,4.15,1.53,6.24c0.16,0.7,0.15,1.44,0.22,2.15
			c-0.78-0.02-1.88,0.29-2.29-0.11c-1.23-1.17-2.64-2.48-3.13-4c-0.65-2-0.45-4.26-0.67-6.41c-0.1-1-0.32-1.99-0.49-2.99
			C160.28,83.19,160.01,83.14,159.74,83.09z"/>
		<path class="st0" d="M56.61,8.13c-0.29,1.63-0.67,2.94-0.73,4.27c-0.14,3.28-1.21,4.4-4.42,4.71c-6.52,0.63-12.35,3.3-17.83,6.65
			c-1.48,0.9-2.41,2.73-3.52,4.19c-0.46,0.61-0.53,1.62-1.09,2c-1,0.69-2.8,1.76-3.26,1.4c-0.96-0.76-1.5-2.29-1.79-3.6
			c-0.36-1.62,1.14-1.87,2.24-2.01c2.45-0.3,3.94-1.62,5.24-3.69c3.15-5,8.09-7.35,13.75-8c2.75-0.31,4.95-0.95,6.66-3.29
			C52.98,9.26,54.54,8.03,56.61,8.13z"/>
		<path class="st0" d="M146.21,12.35c-1.73,0.19-3.54,0.82-5.15,0.48c-2.04-0.43-3.94-1.6-5.86-2.54c-1.17-0.57-2.2-1.47-3.4-1.93
			c-2.88-1.11-5.49,0.5-5.96,3.56c-0.15,0.99-0.07,2.04-0.36,2.98c-0.22,0.71-0.79,1.66-1.38,1.81c-0.77,0.2-1.89-0.07-2.51-0.57
			c-0.31-0.25-0.01-1.53,0.3-2.23c1.22-2.78,1.01-5.56,0.18-8.36c-0.17-0.57-0.38-1.13-0.72-2.14c1.19-0.07,2.14-0.27,3.04-0.15
			c4.42,0.61,8.53,2.1,12.2,4.68c2.85,2.01,5.65,4.11,9.59,3.21C146.18,11.54,146.19,11.94,146.21,12.35z"/>
		<path class="st0" d="M40.3,37.91c-1.41-1.53-2.64-3.01-4.03-4.32c-0.81-0.77-1.8-1.44-2.83-1.88c-1.4-0.6-1.98-1.41-0.78-2.53
			c2.1-1.97,4.17-4.1,6.61-5.54c2.19-1.29,3.24-0.39,3.36,2.17c0.04,0.92,0.03,1.85-0.02,2.78c-0.08,1.53,0.28,2.55,1.95,3.2
			c0.79,0.3,1.14,1.74,1.7,2.66c-0.76,0.32-1.52,0.63-2.27,0.96c-0.65,0.29-1.33,0.53-1.91,0.93C41.47,36.74,40.95,37.32,40.3,37.91
			z"/>
		<path class="st0" d="M24.77,34.89c-0.97,1-1.78,2.28-2.93,2.97c-5.43,3.22-8.31,8.3-10.54,13.9c-1.36,3.4-4.45,4.35-8.05,5.87
			c1.77-4.74,4.04-8.31,7.56-10.95c2.53-1.9,3.92-4.4,4.24-7.41c0.38-3.6,2.49-6.01,5.1-8.61C20.81,33,21.96,34.57,24.77,34.89z"/>
		<path class="st0" d="M12,58.7c-1.68,1.86-3.27,3.81-5.07,5.55c-2.17,2.1-2.24,4.51-1.83,7.25c0.22,1.52,0.04,3.21-0.41,4.68
			c-0.2,0.63-1.63,1.37-2.34,1.23c-0.79-0.15-1.85-1.15-2.02-1.95c-1.47-6.72,2.29-14.11,8.52-16.88c0.89-0.4,1.96-0.39,2.94-0.57
			C11.85,58.24,11.93,58.47,12,58.7z"/>
		<path class="st0" d="M13.81,102.54c4.25,1.04,8.26,0.49,12.25-1.18c1.04-0.44,3.11-0.45,3.55,0.17c0.77,1.1,1.11,2.94,0.76,4.24
			c-0.23,0.88-1.93,1.89-3,1.93C22.21,107.9,17.82,105.75,13.81,102.54z"/>
		<path class="st0" d="M33.8,104.23c2.4-0.25,4.37-0.61,6.34-0.61c1.24,0,3.28,0.22,3.56,0.92c0.64,1.56-0.29,3.47-1.99,3.81
			c-2.26,0.45-4.81,0.69-6.97,0.09C32.5,107.81,33.25,105.67,33.8,104.23z"/>
		<path class="st0" d="M175.55,61.12c-2.2-2.48-2.23-5.49-2-8.36c0.46-5.63-1.13-10.52-4.28-15.06c-0.84-1.2-1.46-2.56-2.3-3.76
			c-0.84-1.19-1.72-2.42-2.81-3.38c-2.51-2.21-5.69-1.33-6.82,1.78c-1.23,3.39-1.11,6.65,0.82,9.8c2.53,4.13,2.55,8.51,1.01,12.96
			c-0.28,0.81-0.88,1.52-1.34,2.27c-0.48-1.12-0.45-1.96-0.48-2.8c-0.14-3.77-0.18-7.47-2.11-11c-1.8-3.31-1.59-7.03-0.67-10.66
			c0.68-2.67,0.93-5.52,4.3-6.56c1.27-0.39,0.76-1.54-0.05-2.19c-1.7-1.36-3.61-1.63-5.68-0.91c-1.95,0.68-2.77,2.06-2.8,4.07
			c-0.03,2.24-0.71,4.22-2.39,5.85c-0.63,0.61-0.94,1.55-1.45,2.42c1.88,0.16,3.33,0.29,4.78,0.42c0.06,0.33,0.11,0.65,0.17,0.98
			c-0.97,0.43-1.9,0.96-2.91,1.27c-3.63,1.12-4.46,1.8-4.49,5.67c-0.04,4.16,0.45,8.32,0.7,12.48c0.04,0.69,0.08,1.38,0.12,2.08
			c-0.28,0.1-0.56,0.19-0.84,0.29c-0.52-0.99-1.3-1.92-1.52-2.98c-1.72-8.4-2.4-16.62,2.57-24.45c3.09-4.87,2.14-7.36-2.74-10.57
			c-1.2-0.79-2.17-1.92-3.25-2.9c0.17-0.22,0.33-0.45,0.5-0.67c2.39,0.48,4.59,1.4,6.48,3.09c0.49,0.44,1.21,1.1,1.67,1
			c2.13-0.49,4.2-1.21,6.3-1.85c-1.09-2.79-3.58-4.22-7.36-3.55c-4.51,0.79-8.58-0.11-12.52-2.19c-1.6-0.85-3.16-0.68-4.55,0.48
			c-1.54,1.29-1.23,2.27,0.54,3.19c3.28,1.7,6.46,3.59,9.64,5.47c0.48,0.28,0.72,0.96,1.07,1.46c-0.19,0.27-0.38,0.55-0.58,0.82
			c-1.67-0.77-3.49-1.33-4.97-2.37c-2.71-1.9-5.7-2.3-8.81-2.2c-1.99,0.06-3.24,1.27-3.75,3.22c-0.96,3.67,0.72,7.15,4.23,8.7
			c2.66,1.17,3.84,4.19,2.48,6.69c-0.36-0.46-0.8-0.81-0.96-1.27c-0.75-2.14-2.31-3.02-4.46-2.96c-2.27,0.06-3.3,1.48-4.1,3.47
			c-0.42,1.04-1.55,2.28-2.57,2.5c-3.57,0.78-6.28,2.62-8.12,5.68c-1.83,3.05-3.63,6.14-5.15,9.34c-0.81,1.7-1.32,3.68-1.35,5.54
			c-0.02,1.04,1.01,2.48,1.97,2.99c0.51,0.27,2.28-0.85,2.77-1.73c1.87-3.35,4.34-4.79,8.23-3.89c2.03,0.47,3.7-0.32,3.92-2.77
			c0.2-2.16,1.64-3.04,3.52-3.43c2.44-0.5,4.13-1.98,5.5-3.96c1.29-1.85,1.66-4.33,3.93-5.55c0.44-0.24,0.57-1.23,0.67-1.9
			c0.79-5-0.59-9.48-3.32-13.64c-0.54-0.82-0.91-1.74-1.36-2.62c0.25-0.22,0.49-0.43,0.74-0.65c0.93,0.65,2.07,1.13,2.76,1.98
			c2.61,3.17,4.27,6.74,4.4,10.98c0.07,2.38-0.06,4.97,2.87,6.66c-0.9,0.48-1.44,0.99-2.02,1.05c-3.78,0.33-5.72,2.99-7.71,5.74
			c-1.57,2.16-3.34,4.18-5.09,6.2c-1.28,1.48-1.45,3.23-0.11,4.25c3,2.31,5.98,4.7,9.91,5.32c0.47,0.07,0.89,0.41,1.34,0.62
			c-0.03,0.23-0.05,0.46-0.08,0.7c-0.8,0.06-1.69,0.38-2.38,0.14c-3.53-1.28-7.03-2.66-10.5-4.09c-1.56-0.64-2.97-1.74-4.58-2.18
			c-2.63-0.72-5.39-0.44-7.31,1.62c-1.88,2.01-1.59,4.53-0.4,6.95c1.33,2.7,2.62,5.43,3.88,8.17c0.39,0.85,0.61,1.78,0.91,2.67
			c-0.25,0.18-0.5,0.36-0.75,0.53c-0.92-0.9-2.04-1.68-2.71-2.74c-1.06-1.69-1.59-3.75-2.76-5.34c-1.48-2.01-3.17-4-5.16-5.47
			c-2.14-1.57-4.03-0.87-5.51,1.37c-0.42,0.64-0.81,1.32-1.13,2.02c-0.69,1.52-1.55,1.85-3.31,1.33c-1.71-0.5-3.74-0.44-5.51-0.08
			c-2.04,0.41-3.91,1.62-5.94,2.12c-3.39,0.84-6.61,1.57-7.66,5.66c-0.52,2.02-2.25,3.21-4.32,3.39c-1.35,0.12-2.74-0.34-4.12-0.46
			c-3.13-0.29-5.99,0.27-8.32,2.63c-0.95,0.96-2.02,1.82-3.1,2.64c-3.09,2.36-5.92,4.79-4.98,9.34c0.16,0.74-0.04,1.84-0.52,2.39
			c-4.71,5.44-2.42,12.1,0.33,16.85c1.05,1.82,2.77,2.46,4.79,1.98c2.26-0.54,4.21-0.05,6.17,1.17c3.28,2.04,6.9,2.72,10.38,0.81
			c3.64-2,7.45-2.38,11.44-2.33c3.89,0.05,3.88,0.02,5.37-3.56c0.07-0.16,0.36-0.22,0.55-0.33c1.96,2.79,1.53,4.83-1.55,5.73
			c-2.95,0.86-6.08,1.07-9.05,1.87c-0.97,0.26-1.68,1.48-2.51,2.26c1,0.67,2.07,1.98,3,1.88c2.25-0.23,4.61-0.78,6.62-1.8
			c4.13-2.09,8.4-2.83,12.99-2.88c3.21-0.04,6.46-0.58,9.59-1.33c2.6-0.62,2.71-1.92,0.59-3.62c-2.23-1.78-4.63-3.38-6.75-5.29
			c-1.9-1.71-4.01-2.5-6.51-2.61c-3.22-0.15-5.81,1.23-8.33,3.02c-1.49,1.06-3.19,1.83-4.79,2.73c-0.18-0.24-0.35-0.49-0.53-0.73
			c0.57-2.13,1.99-3.81,3.98-4.61c2.91-1.17,5.97-2.03,9.04-2.71c1.89-0.42,2.52-1.2,2.09-3.03c-0.19-0.81-0.2-1.66-0.3-2.5
			c0.27-0.12,0.54-0.24,0.8-0.35c1.05,1.44,2.03,2.94,3.18,4.3c5.36,6.34,11.07,12.04,20.48,10.78c3.84-0.52,7.68-0.89,10.98-3.28
			c1.89-1.37,3.55-2.66,1.83-5.25c-0.15-0.23,0.08-0.71,0.14-1.08c2.86,0.61,3.25,1.3,3.06,5.74c1.56-0.3,3.17-0.28,4.46-0.92
			c4.8-2.38,8.57-6.11,9.36-11.42c0.92-6.23,0.52-12.65,1.18-18.94c0.59-5.56-6.28-9.41-10.89-6.98c-1.71,0.9-3.42,1.81-5.15,2.66
			c-2.58,1.26-4.9,2.62-4.85,6.07c0.01,0.9-0.77,1.82-1.23,2.71c-0.43,0.84-0.9,1.67-1.34,2.48c3.15,0,6.02,0,8.88,0
			c0.11,0.26,0.23,0.51,0.34,0.77c-0.73,0.47-1.4,1.2-2.19,1.36c-1.66,0.34-3.37,0.39-5.06,0.55c-1.92,0.18-3.88,0.19-5.77,0.55
			c-3.16,0.61-4.37,2.61-3.74,5.79c0.84,4.25,3.1,6.11,7.4,5.4c4.71-0.78,9.32-2.18,14.03-2.98c1.81-0.31,3.78,0.22,5.65,0.51
			c0.35,0.05,0.6,0.76,0.89,1.16c-0.41,0.26-0.79,0.68-1.23,0.75c-4.72,0.7-9.48,1.24-14.18,2.05c-4.62,0.79-5.2,1.71-5.63,6.44
			c-0.11,1.2-1.06,3.39-1.4,3.34c-2.07-0.26-1.02-2.11-1.24-3.34c-0.03-0.15-0.01-0.31,0.01-0.46c0.49-2.96-0.39-5.01-3.38-6.23
			c-2.74-1.12-4.85-2.96-4.89-6.39c-0.02-1.6-1.13-2.18-2.84-2.33c-3.36-0.29-6.7-0.85-10.01-1.53c-5.72-1.19-11.15-1.14-16.23,2.34
			c-1.75,1.2-3.81,2.09-5.85,2.73c-5,1.56-9.69,3.43-13.4,7.42c-3.01,3.24-6.99,4.81-11.44,4.9c-0.84,0.02-1.69-0.47-2.53-0.73
			c2.31-0.98,4.5-1.19,6.48-1.93c3.41-1.28,3.66-3.04,1.22-5.67c-0.93-1-1.66-2.19-2.63-3.48c2.92-1.06,3.8,0.3,4.52,2.14
			c1.09,2.8,3.31,3.36,5.65,1.48c0.53-0.43,0.87-1.11,1.41-1.53c1.61-1.24,3.2-2.54,4.95-3.57c3.7-2.19,7.59-4.09,11.2-6.42
			c1.04-0.67,2.09-2.54,1.91-3.66c-0.7-4.38,2.22-8.81-0.26-13.11c-0.01-0.03,0.09-0.12,0.56-0.74c0.94,1.09,2.42,2.01,2.55,3.1
			c0.28,2.36,0.17,4.88-0.36,7.2c-0.38,1.65-0.27,2.65,1.11,3.53c0.65,0.41,1.27,0.9,1.94,1.27c2.79,1.53,4.41,0.69,4.86-2.44
			c0.13-0.9,0.1-2.18,0.66-2.6c1.74-1.3,1.44-2.82,1.15-4.54c-0.11-0.67,0.27-1.43,0.43-2.15c0.59,0.59,1.63,1.14,1.68,1.77
			c0.21,2.59,0.27,5.21,0.08,7.79c-0.19,2.66,0.46,4.05,3.04,4.61c5.39,1.17,10.7,0.76,15.53-2c1.62-0.92,3.26-2.62,3.88-4.33
			c1.73-4.76,4.72-8.26,8.92-10.91c3.83-2.41,4.62-6.96,1.37-10.15c-1.79-1.76-4.38-2.69-6.58-4.05c-0.72-0.44-1.34-1.04-2-1.57
			c0.17-0.22,0.34-0.44,0.5-0.67c3.15-0.33,6.11,0.44,8.08,2.93c1.93,2.43,3.46,5.23,4.83,8.03c0.95,1.95,1.33,2.28,3.17,0.96
			c2.46-1.76,3.9-4.3,4.44-7.14c0.74-3.93,0.95-7.95,1.54-11.91c0.1-0.71,0.89-1.32,1.37-1.98c0.46,0.6,1.07,1.14,1.33,1.82
			c0.23,0.61,0.21,1.41,0.05,2.07c-1.22,5.01-2.47,10.02-3.77,15.01c-0.36,1.37-0.89,2.69-1.39,4.19c3,0.73,5.55,0.41,7.27-1.52
			c2.17-2.43,4.41-5.08,5.62-8.05c2.48-6.1,3.51-12.49,0.28-18.79c2.44-0.98,3.27,0.47,3.52,2.2c0.76,5.28,1.32,10.57-0.42,15.8
			c-0.17,0.51-0.02,1.13-0.02,1.85c3.45-1.29,6.19-0.09,8.96,1.24c0.61,0.29,1.95,0.12,2.29-0.33
			C175.61,63.08,175.95,61.57,175.55,61.12z"/>
		<path class="st0" d="M120.65,30.56c-1.51-3.08-2.22-6.37-0.86-9.62c0.71-1.69,0.3-2.63-1.11-3.09c-2.83-0.93-5.75-1.62-8.63-2.41
			c-4.69,0.41-8.62,1.87-11.72,5.32c-3.12,3.47-5.45,7.42-6.1,12.03c-0.32,2.27-0.02,4.79,0.64,7.01c1.11,3.74,2.74,7.32,4.13,10.97
			c0.77,2.03,2.27,2.76,4.22,1.75c2.79-1.44,4.45-3.71,4.65-6.97c0.19-3.09-1.1-5.26-3.6-7.03c-0.71-0.5-0.74-1.95-1.08-2.97
			c0.91,0.46,1.83,0.91,2.72,1.41c0.18,0.1,0.27,0.37,0.42,0.55c2.36,2.96,5.27,3.16,8.31,0.92c2.06-1.53,4.35-2.79,6.64-3.97
			C121.1,33.51,121.55,32.39,120.65,30.56z"/>
	</g>
</g>
</svg>
