<?xml version="1.0" encoding="utf-8"?>
<!-- Generator: Adobe Illustrator 23.0.4, SVG Export Plug-In . SVG Version: 6.00 Build 0)  -->
<svg version="1.1" id="Layer_1" xmlns="http://www.w3.org/2000/svg" xmlns:xlink="http://www.w3.org/1999/xlink" x="0px" y="0px"
	 viewBox="0 0 123.2 135.71" style="enable-background:new 0 0 123.2 135.71;" xml:space="preserve">
<style type="text/css">
	.st0{fill:#FFFFFF;}
</style>
<g>
	<path class="st0" d="M123.2,88.04c-4.02-1.76-7.44-1.19-10.88-0.88c-3.3,0.29-6.62,0.32-9.93,0.47c-0.08-0.95-0.15-1.89-0.23-2.84
		c4.56-2.48,9.11-4.96,13.67-7.44c-0.35-0.95-0.71-1.9-1.06-2.86c-8.52,1.88-17.04,3.76-25.56,5.64c-0.22-0.98-0.45-1.97-0.67-2.95
		c2.2-1.6,4.41-3.2,6.61-4.8c-0.22-0.88-0.43-1.76-0.65-2.64c-3.49,0.66-6.96,1.76-10.46,1.85c-2.81,0.07-5.75-0.82-8.41-1.87
		c-0.53-0.21-0.46-4.28,0.08-4.47c2.66-0.95,5.6-1.67,8.4-1.57c3.58,0.13,7.14,1.12,10.7,1.74c0.15-0.74,0.29-1.47,0.44-2.21
		c-2.17-1.85-4.34-3.7-6.51-5.55c0.3-0.91,0.61-1.82,0.91-2.73c8.68,1.94,17.35,3.89,26.03,5.83c0.19-0.84,0.38-1.68,0.56-2.52
		c-4.77-2.74-9.55-5.48-14.32-8.22c0.35-0.94,0.69-1.87,1.04-2.81c6.33,0.71,12.67,1.42,19,2.13c0.19-0.67,0.37-1.34,0.56-2.01
		c-2.33-1.75-4.65-3.5-6.97-5.25c1.23-2.69,2.42-5.27,4.04-8.79c-3.53,0.26-5.85,0.42-8.43,0.61c-0.59-3.12-1.18-6.22-2.3-12.11
		c-4.15,8.64-7.02,14.62-9.89,20.59c-0.86-0.41-1.72-0.81-2.58-1.22c0-5.31,0-10.61,0-15.92c-0.73-0.19-1.46-0.38-2.19-0.57
		c-2.64,8.24-5.27,16.49-7.91,24.73c-0.81-0.3-1.63-0.6-2.44-0.89c-0.67-2.66-1.33-5.32-2-7.99c-3.52,3.12-4.2,6.67-5.84,9.72
		c-1.34,2.49-3.71,4.5-5.89,6.4c-0.33,0.29-3.18-1.29-3.12-1.74c0.42-2.85,0.83-5.91,2.22-8.34c1.81-3.16,4.54-5.8,8.75-10.97
		c-6.38,1.77-9.3,2.59-12.22,3.4c-0.45-0.65-0.91-1.3-1.36-1.96c5.88-6.46,11.76-12.91,17.63-19.37c-0.76-0.65-1.52-1.31-2.27-1.96
		c-4.48,2.9-8.95,5.81-13.43,8.71c-0.76-0.72-1.52-1.43-2.28-2.15c3.91-5.61,7.82-11.21,11.73-16.82c-0.5-0.42-0.99-0.83-1.49-1.25
		c-2.9,1.41-5.81,2.81-8.44,4.09c-1.66-2.75-2.99-4.95-5.02-8.3c-1.62,3.82-2.71,6.38-3.68,8.67c-3.51-1.33-6.1-2.32-8.69-3.3
		c-0.37,0.52-0.74,1.03-1.11,1.55c3.66,5.1,7.33,10.21,10.99,15.31c-0.74,0.65-1.47,1.3-2.21,1.96c-4.05-2.67-8.1-5.34-12.15-8.01
		c-0.74,0.67-1.48,1.33-2.23,2c5.47,6.48,10.94,12.97,16.42,19.45c-0.63,0.64-1.27,1.27-1.9,1.91c-2.62-0.92-5.25-1.84-7.87-2.76
		c0.19,3.86,2.18,5.9,3.54,8.3c1.72,3.02,3.08,6.28,4.16,9.58c0.12,0.38-3.59,2.62-3.79,2.4c-2.36-2.57-4.58-5.33-6.44-8.28
		c-1.25-1.97-1.73-4.42-2.86-6.48c-0.34-0.62-1.74-0.66-2.7-0.98c-0.57,2.82-1.08,5.41-1.6,7.99c-0.99,0.25-1.97,0.5-2.96,0.74
		c-2.52-8.22-5.03-16.44-7.55-24.66c-1.06,0.3-2.12,0.59-3.19,0.89c0,5.23,0,10.46,0,15.69c-0.78,0.2-1.55,0.4-2.33,0.6
		c-2.67-6-5.33-12.01-8-18.01c-0.66,0.2-1.32,0.4-1.98,0.59c-0.27,2.95-0.54,5.89-0.84,9.17C9.22,34.49,6.64,34.65,3,34.87
		c1.69,3.07,2.92,5.31,4.14,7.52c-2.55,1.97-4.81,3.71-7.07,5.46c4,1.57,7.18,0.88,10.4,0.64c3.28-0.25,6.59-0.05,9.88-0.05
		c0.09,0.73,0.18,1.45,0.27,2.18c-4.62,2.57-9.24,5.13-13.87,7.7c0.22,0.83,0.43,1.66,0.65,2.49c8.62-1.81,17.25-3.63,25.87-5.44
		c0.23,0.97,0.46,1.93,0.69,2.9c-2.12,1.73-4.24,3.45-6.36,5.18c4.34,1.69,7.76,0.6,11.19,0.53c2.77-0.06,5.65,0.9,8.27,1.94
		c0.48,0.19,0.39,4.1-0.22,4.35c-2.38,0.95-5.1,1.58-7.65,1.46c-3.69-0.18-7.35-1.12-11.02-1.73c-0.15,0.73-0.3,1.46-0.45,2.2
		c2.26,1.79,4.51,3.58,6.77,5.37c-0.28,0.94-0.56,1.88-0.84,2.82c-8.57-1.92-17.13-3.84-25.7-5.76c-0.25,0.87-0.49,1.74-0.74,2.62
		c4.59,2.68,9.18,5.35,13.76,8.03c-0.15,0.84-0.3,1.69-0.44,2.53c-3.28-0.18-6.58-0.26-9.85-0.57c-3.39-0.32-6.76-0.87-10.13-1.33
		c-0.19,0.73-0.37,1.47-0.56,2.2c2.46,1.69,4.93,3.38,7.56,5.18c-1.46,2.63-2.82,5.05-4.6,8.25c3.77,0,6.39,0,9.22,0
		c0.32,3.37,0.61,6.38,0.9,9.39c0.57,0.18,1.15,0.37,1.72,0.55c2.97-6.17,5.94-12.34,8.91-18.51c1.04,0.42,2.07,0.85,3.11,1.27
		c0,5.16,0,10.32,0,15.48c0.7,0.11,1.4,0.22,2.1,0.33c2.54-8.16,5.09-16.31,7.63-24.47c0.95,0.26,1.89,0.52,2.84,0.78
		c0.36,2.85,0.73,5.7,1.37,10.71c2.46-3.53,3.86-5.28,4.97-7.19c2.11-3.62,4.02-7.37,6.26-10.91c0.09-0.14,2.72,1.33,4.16,2.04
		c-2.19,3.87-4.4,7.74-6.57,11.63c-0.65,1.16-1.43,2.32-1.72,3.57c-0.19,0.82,0.39,1.81,0.63,2.72c2.91-0.83,5.56-1.58,8.22-2.33
		c0.51,0.73,1.01,1.45,1.52,2.18c-5.93,6.2-11.85,12.4-17.78,18.61c0.69,0.7,1.38,1.4,2.08,2.1c4.71-2.63,9.42-5.26,14.14-7.89
		c0.61,0.82,1.22,1.64,1.82,2.46c-3.85,4.97-7.7,9.95-11.54,14.92c0.53,0.57,1.07,1.15,1.6,1.72c2.66-1.19,5.31-2.38,8.09-3.62
		c1.62,2.83,3.07,5.37,4.95,8.65c1.84-3.38,3.24-5.95,4.59-8.43c3.22,1.3,5.86,2.35,8.5,3.41c0.46-0.6,0.91-1.2,1.37-1.8
		c-3.91-5.08-7.82-10.17-11.73-15.25c0.82-0.73,1.64-1.46,2.46-2.19c4.55,2.74,9.11,5.49,13.66,8.23c0.72-0.7,1.43-1.39,2.15-2.09
		c-6.14-6.46-12.28-12.93-18.42-19.39c0.77-0.75,1.54-1.51,2.31-2.26c2.66,1.12,5.33,2.24,7.99,3.36c0.65-0.72,1.29-1.43,1.94-2.15
		c-2.75-2.96-5.82-5.69-8.11-8.97c-1.23-1.75-1.57-4.47-1.4-6.68c0.07-0.96,2.93-2.78,3.65-2.43c1.96,0.97,4.05,2.6,4.99,4.5
		c1.19,2.41,0.9,5.54,2.01,8.01c0.7,1.54,2.81,2.44,4.68,3.95c0.75-3.58,1.34-6.37,1.92-9.15c0.89-0.15,1.77-0.3,2.66-0.45
		c2.38,8.1,4.76,16.2,7.15,24.3c1.02-0.26,2.04-0.51,3.06-0.77c0-5.22,0-10.45,0-15.67c3.86,2.4,5.43,5.46,6.9,8.58
		c1.4,2.95,2.69,5.95,4.03,8.93c0.62-0.29,1.24-0.57,1.87-0.86c0.45-2.97,0.89-5.94,1.28-8.51c3.18-0.47,5.62-0.84,8.66-1.29
		c-1.88-3.12-3.17-5.26-4.49-7.45C118.34,91.18,120.77,89.61,123.2,88.04z M61.07,79.65c-3.49-5.95-6.87-9.18-6.72-12.24
		c0.13-2.58,4.36-4.95,6.77-7.41c2.63,2.59,7.06,4.98,7.37,7.83C68.81,70.62,64.93,73.87,61.07,79.65z"/>
</g>
</svg>
