<?xml version="1.0" encoding="utf-8"?>
<!-- Generator: Adobe Illustrator 23.0.4, SVG Export Plug-In . SVG Version: 6.00 Build 0)  -->
<svg version="1.1" id="Layer_1" xmlns="http://www.w3.org/2000/svg" xmlns:xlink="http://www.w3.org/1999/xlink" x="0px" y="0px"
	 viewBox="0 0 125.71 128.08" style="enable-background:new 0 0 125.71 128.08;" xml:space="preserve">
<style type="text/css">
	.st0{fill:#FFFFFF;}
</style>
<g>
	<g>
		<path class="st0" d="M52.25,52.4c8.83,0.64,18.97,7.7,19.58,15.98c0.98,13.45,4.34,26.28,7.19,39.34
			c2.5,11.46-7.49,22.35-17.71,20.06c-4.36-0.98-8.88-3.52-12.18-6.59c-8.48-7.88-18.22-13.24-28.95-17.23
			c-3.88-1.44-7.67-3.38-11.09-5.7c-9.09-6.18-10.29-16.86-3.24-25.37c5.19-6.26,12.29-8.65,19.83-10.69
			c6.11-1.65,11.93-4.38,17.88-6.61C46.44,54.5,49.35,53.46,52.25,52.4z"/>
		<path class="st0" d="M70.14,17.02c-2.51,6.16-3.04,12.3-6.34,17.99c-4.17,7.17-10.64,9.41-16.71,7.24
			c-6.53-2.33-11.03-8.78-9.23-16.72c1.56-6.88,4.88-13.68,8.79-19.62c3.88-5.9,10.19-7.09,15.64-4.9
			c5.47,2.19,7.92,6.91,7.81,15.06C70.14,15.97,70.14,17.02,70.14,17.02z"/>
		<path class="st0" d="M110.07,30.24c-0.02,8.66-10.4,23.93-18.4,27.08c-5.29,2.08-13.99-0.33-18.15-5.22
			c-3.88-4.56-2.04-9.27,0.25-13.67c4.93-9.5,11.83-16.89,22.91-18.91C104.34,18.14,110.09,22.92,110.07,30.24z"/>
		<path class="st0" d="M100.42,100.92c-6.68-0.79-12.44-3.76-15.45-9.88c-1.19-2.43-0.87-6.84,0.63-9.13
			c5.8-8.81,14.33-14.18,24.83-15.45c5.65-0.68,10.59,2.23,13.95,6.71c1.23,1.64,1.76,5.04,0.9,6.8
			c-4.52,9.29-11.33,16.51-21.13,20.46C103.08,100.88,101.77,100.76,100.42,100.92z"/>
		<path class="st0" d="M0,32.73c1.28-4.61,2-7.83,3.92-12.16c2.3-5.19,7.34-6.65,12.68-6.51c4.94,0.13,7.93,3.15,9.67,7.52
			c3.54,8.89,4.73,17.85-0.03,26.68c-3.16,5.87-8.43,8.42-14.74,7.56C5.16,54.95,3,50.31,1.9,44.95C1.21,41.56,0.43,37.21,0,33.77
			V32.73z"/>
	</g>
</g>
</svg>
