<?xml version="1.0" encoding="utf-8"?>
<!-- Generator: Adobe Illustrator 23.0.4, SVG Export Plug-In . SVG Version: 6.00 Build 0)  -->
<svg version="1.1" id="Layer_1" xmlns="http://www.w3.org/2000/svg" xmlns:xlink="http://www.w3.org/1999/xlink" x="0px" y="0px"
	 viewBox="0 0 355.02 153.91" style="enable-background:new 0 0 355.02 153.91;" xml:space="preserve">
<style type="text/css">
	.st0{fill:#FFFFFF;}
</style>
<g>
	<path class="st0" d="M258.21,126.52c13.72,1.4,27.46,0.95,42.67,1.12c-3.62-3.98-6.22-6.69-8.65-9.56
		c-6.26-7.41-8.93-15.7-4.75-24.97c4.14-9.18,11.96-13.18,21.69-13.31c15.14-0.2,30.29-0.05,45.85-0.05c0,7.99,0,15.68,0,23.84
		c-12.09,0-24.01,0-37.55,0c3.65,4,6.33,6.98,9.06,9.91c4.5,4.81,7.14,10.35,7.15,17.06c0.01,12.88-9.13,22.84-22.01,23.04
		c-19.15,0.29-38.32,0.18-57.47,0.02c-6.01-0.05-11.34-2.23-15.58-6.81c-4.26-4.59-8.69-9.01-14.18-12.94c0,6.38,0,12.76,0,19.47
		c-9.93,0-19.31,0-29.04,0c0-24.35,0-48.59,0-73.18c0.96-0.13,1.89-0.38,2.82-0.38c15.99-0.02,31.99-0.18,47.98,0.03
		c17.18,0.23,28.6,14.73,24.41,30.62C269.34,115.27,267.75,117.19,258.21,126.52z M224.88,109.98c5.49,0,10.49,0.39,15.37-0.21
		c1.76-0.22,3.22-2.83,4.81-4.35c-1.56-1.58-2.99-4.31-4.72-4.53c-5-0.62-10.13-0.22-15.46-0.22
		C224.88,103.92,224.88,106.65,224.88,109.98z"/>
	<path class="st0" d="M0,73.79c0-8.69,0-16.82,0-25.53c19.81,0,39.53,0,60.84,0c-1.99-2.37-3.14-3.58-4.11-4.93
		c-3.28-4.56-7.54-8.75-9.52-13.83C41.75,15.56,51.57,0.67,67.31,0.37c34.46-0.68,68.95-0.21,103.82-0.21c0,7.95,0,15.65,0,23.88
		c-10.36,0-20.61,0-31.39,0c0,16.74,0,32.97,0,49.61c-8.92,0-17.31,0-26.35,0c0-16.22,0-32.61,0-49.31c-11.84,0-23.04,0-35.42,0
		c3.38,3.73,6.15,6.87,9,9.93c6.62,7.1,8.53,15.4,5.62,24.53c-2.72,8.52-8.88,14.57-17.71,14.79C50.09,74.2,25.28,73.79,0,73.79z"/>
	<path class="st0" d="M0.19,79.95c9.87,0,19.49,0,29.47,0c1.83,6.04,3.65,12.06,5.48,18.07c0.31,0.07,0.63,0.14,0.94,0.21
		c1.38-4.77,2.94-9.5,4.07-14.33c0.72-3.09,1.98-4.36,5.36-4.23c7.66,0.28,15.33,0.19,23,0.03c2.61-0.06,3.86,0.74,4.56,3.32
		c1.39,5.13,3.15,10.15,5.7,15.4c1.43-4.76,3.02-9.48,4.22-14.3c0.8-3.22,2.11-4.65,5.75-4.48c7.62,0.34,15.27,0.1,23.54,0.1
		c-0.84,2.88-1.5,5.23-2.21,7.57c-6.3,20.71-12.69,41.39-18.83,62.14c-0.99,3.33-2.38,4.53-5.87,4.32c-5.48-0.32-11-0.26-16.49-0.02
		c-3.03,0.13-4.38-0.89-5.19-3.82c-2.16-7.83-4.65-15.56-7.43-24.72c-2.84,9.14-5.34,16.86-7.61,24.64
		c-0.81,2.8-2.03,4.07-5.17,3.92c-5.82-0.27-11.67,0.11-17.49-0.22c-1.47-0.08-3.72-1.55-4.14-2.85
		C14.59,127.87,7.56,104.95,0.5,82.04C0.32,81.45,0.31,80.81,0.19,79.95z"/>
	<path class="st0" d="M281.51,73.83c-10.19,0-19.48,0-29.08,0c0-24.45,0-48.69,0-73.26c1.11-0.17,2.2-0.47,3.28-0.47
		c15.65-0.02,31.3-0.16,46.95,0.04c17.56,0.22,29.13,14.61,25.01,30.65c-1.79,6.99-6.87,11.15-12.66,16.1
		c2.04,0.36,4.09,1.02,6.14,1.04c11.14,0.1,22.29,0.05,33.86,0.05c0,8.62,0,16.98,0,26.06c-2.11,0-4.21,0-6.3,0
		c-10.99,0-21.99-0.3-32.96,0.09c-9.11,0.32-16.6-2.25-22.58-9.32c-3.28-3.88-7.03-7.37-11.66-12.16
		C281.51,60.64,281.51,67.01,281.51,73.83z M281.8,30.47c5.53,0,10.68,0.35,15.73-0.2c1.66-0.18,4.44-2.91,4.26-4.12
		c-0.27-1.87-2.49-4.69-4.15-4.89c-5.17-0.64-10.47-0.23-15.84-0.23C281.8,24.34,281.8,26.97,281.8,30.47z"/>
	<path class="st0" d="M161.12,74.04c3.34-11.07,6.45-21.39,9.57-31.71c3.85-12.74,7.79-25.45,11.47-38.24
		c0.9-3.13,2.34-4.14,5.57-4.08c10.99,0.2,21.98-0.02,32.96,0.19c1.53,0.03,4.01,1.31,4.4,2.54c7.35,23.14,14.46,46.37,21.6,69.58
		c0.09,0.29-0.05,0.65-0.14,1.7c-7.99,0-16.06,0.17-24.11-0.19c-1.18-0.05-2.98-2.52-3.23-4.07c-0.87-5.43-3.8-6.96-8.99-6.44
		c-4.62,0.46-9.33,0.31-13.97,0.02c-3.44-0.21-5.43,0.84-5.82,4.38c-0.59,5.36-3.59,6.84-8.81,6.43
		C175.18,73.65,168.67,74.04,161.12,74.04z M210.96,42.99c-2.08-6.68-3.96-12.7-5.83-18.73c-0.34,0.03-0.68,0.05-1.02,0.08
		c-1.86,6.06-3.72,12.12-5.73,18.65C202.66,42.99,206.39,42.99,210.96,42.99z"/>
	<path class="st0" d="M188.32,153.71c-7.98,0-15.63-0.18-23.26,0.08c-3.72,0.12-4.04-2.45-4.43-4.77c-0.84-5.07-3.48-6.76-8.57-6.22
		c-4.77,0.5-9.65,0.31-14.46,0.04c-3.23-0.18-5.21,0.81-5.53,4.08c-0.59,5.92-3.87,7.37-9.45,6.9c-6.39-0.54-12.86-0.12-19.95-0.12
		c2.12-7.02,4.02-13.34,5.93-19.65c5.05-16.71,10.18-33.39,15.07-50.15c0.89-3.03,2.07-4.29,5.41-4.23
		c10.98,0.21,21.96,0.14,32.95,0.03c2.63-0.03,4.18,0.41,5.07,3.34c6.96,22.9,14.13,45.74,21.21,68.6
		C188.44,152.1,188.32,152.62,188.32,153.71z M152.54,122.71c-2.07-6.72-3.98-12.94-6.35-20.63c-2.34,7.73-4.23,13.96-6.25,20.63
		C144.33,122.71,147.78,122.71,152.54,122.71z"/>
</g>
</svg>
