<?xml version="1.0" encoding="utf-8"?>
<!-- Generator: Adobe Illustrator 23.0.4, SVG Export Plug-In . SVG Version: 6.00 Build 0)  -->
<svg version="1.1" id="Layer_1" xmlns="http://www.w3.org/2000/svg" xmlns:xlink="http://www.w3.org/1999/xlink" x="0px" y="0px"
	 viewBox="0 0 90.43 131.09" style="enable-background:new 0 0 90.43 131.09;" xml:space="preserve">
<style type="text/css">
	.st0{fill:#FFFFFF;}
</style>
<g>
	<path class="st0" d="M90.01,38.26C87.37,17.42,68.72,0.81,47.09,0.03C25.1-0.76,5.43,14.35,1.13,35.34
		c-5.11,24.94,7.12,43.33,36.32,54.66c0,3.08,0,6.13,0,9.47c-3.29,0-6.12-0.21-8.89,0.05c-4.49,0.43-7.38,2.83-7.28,7.61
		c0.1,4.78,2.96,7.05,7.6,7.17c2.9,0.07,5.79,0.01,9.07,0.01c0,3.41-0.06,5.83,0.01,8.25c0.17,5.59,2.84,8.61,7.48,8.53
		c4.51-0.07,7.22-3.26,7.38-8.78c0.07-2.53,0.01-5.06,0.01-7.99c3.29,0,5.7,0.06,8.11-0.01c5.35-0.16,8.77-3.14,8.68-7.48
		c-0.09-4.22-3.67-7.23-8.93-7.39c-2.54-0.08-5.08-0.01-7.72-0.01c0-3.66,0-6.45,0-9.66C78.79,83.94,93.09,62.49,90.01,38.26z
		 M45.67,75.18c-16.76,0.16-30.71-13.5-30.71-30.08c0-16.67,13.8-30.31,30.56-30.21c16.64,0.1,29.87,13.39,29.9,30.06
		C75.46,61.61,62.25,75.03,45.67,75.18z"/>
</g>
</svg>
