<?xml version="1.0" encoding="utf-8"?>
<!-- Generator: Adobe Illustrator 23.0.4, SVG Export Plug-In . SVG Version: 6.00 Build 0)  -->
<svg version="1.1" id="Layer_1" xmlns="http://www.w3.org/2000/svg" xmlns:xlink="http://www.w3.org/1999/xlink" x="0px" y="0px"
	 viewBox="0 0 98.22 128.07" style="enable-background:new 0 0 98.22 128.07;" xml:space="preserve">
<style type="text/css">
	.st0{fill:#FFFFFF;}
</style>
<g>
	<g>
		<path class="st0" d="M97.85,26.7c-0.61-1.24-2.53-2.35-3.99-2.5c-1.23-0.13-2.86,0.94-3.89,1.92c-3.73,3.54-7.28,7.28-11.21,11.25
			c-2.96-3.07-5.68-5.87-8.38-8.69c-3.08-3.22-6.77-4.77-11.27-4.69c-6.6,0.12-13.21,0.1-19.82,0.01
			c-4.38-0.06-8.03,1.43-11.05,4.56c-2.72,2.82-5.42,5.66-8.48,8.86c-4.19-4.25-7.9-8.11-11.73-11.84
			c-2.14-2.08-4.77-2.06-6.66-0.23c-1.9,1.84-1.86,4.73,0.25,6.88c4.77,4.84,9.58,9.64,14.43,14.41c2.38,2.34,4.88,2.31,7.28-0.03
			c2.61-2.54,5.11-5.18,7.74-7.69c0.7-0.67,1.69-1.02,2.55-1.51c0.32,1.02,0.92,2.03,0.92,3.05c0.06,15.22,0.04,30.44,0.04,45.67
			c0,11.49,0.03,22.98-0.02,34.46c-0.01,3.06,1.09,5.45,3.86,6.81c4.49,2.2,9.37-1.14,9.39-6.48c0.05-14.46-0.01-28.91,0.07-43.37
			c0.01-1.38-1.1-3.51,1.38-3.88c0.25-0.04,1.27,2.59,1.28,3.99c0.1,14.55,0.04,29.1,0.08,43.65c0.01,3.65,2.4,6.28,5.82,6.7
			c3.26,0.4,6.41-1.87,7.14-5.29c0.26-1.2,0.25-2.47,0.25-3.71c0.01-26.23,0-52.46,0.04-78.69c0-0.96,0.5-1.91,0.76-2.87
			c0.87,0.45,1.9,0.73,2.59,1.38c2.79,2.62,5.44,5.39,8.2,8.04c1.92,1.85,4.36,2.18,6.22,0.42c5.43-5.12,10.71-10.41,15.77-15.89
			C98.31,30.43,98.46,27.95,97.85,26.7z"/>
		<path class="st0" d="M49.29,21.22c5.82-0.01,10.59-4.76,10.59-10.54c0-5.74-4.79-10.61-10.52-10.68
			c-5.8-0.08-10.79,4.92-10.73,10.76C38.69,16.55,43.46,21.24,49.29,21.22z"/>
	</g>
</g>
</svg>
