<?xml version="1.0" encoding="utf-8"?>
<!-- Generator: Adobe Illustrator 23.0.4, SVG Export Plug-In . SVG Version: 6.00 Build 0)  -->
<svg version="1.1" id="Layer_1" xmlns="http://www.w3.org/2000/svg" xmlns:xlink="http://www.w3.org/1999/xlink" x="0px" y="0px"
	 viewBox="0 0 170.16 96.02" style="enable-background:new 0 0 170.16 96.02;" xml:space="preserve">
<style type="text/css">
	.st0{fill:#FFFFFF;}
</style>
<g>
	<g>
		<path class="st0" d="M53.84,74.25h6.68c-2.3,4.58-5.82,8.06-10.57,10.46c-4.75,2.39-10.41,3.59-17,3.59h-0.19
			c-10.24,0-18.27-2.54-24.07-7.62S0,68.61,0,59.73c0-6.06,1.46-11.67,4.39-16.81s6.83-8.91,11.7-11.29s10.21-3.57,16.02-3.57
			c7.97,0,14.41,2.24,19.33,6.71s7.39,10.29,7.39,17.44c0,6.15-2.04,11.45-6.13,15.91c-4.09,4.46-8.93,6.7-14.53,6.7
			c-3.32,0-5.25-1.2-5.77-3.61c-2.46,2.4-5.29,3.61-8.49,3.61c-3.59,0-6.5-1.23-8.72-3.7c-2.22-2.47-3.33-5.71-3.33-9.72
			c0-4.93,1.57-9.59,4.7-13.97c3.13-4.38,7.22-6.57,12.25-6.57c3.66,0,6.41,1.41,8.28,4.24l0.77-3.48h8.21l-4.71,22.48
			c-0.29,1.4-0.44,2.34-0.44,2.82c0,0.98,0.41,1.47,1.22,1.47c1.09,0,2.55-0.73,4.39-2.18c1.84-1.45,3.41-3.47,4.71-6.05
			c1.3-2.58,1.94-5.34,1.94-8.26c0-5.41-1.94-9.79-5.81-13.12s-9-5-15.37-5c-5.56,0-10.34,1.17-14.35,3.51
			c-4.01,2.34-6.99,5.64-8.95,9.89c-1.95,4.25-2.93,8.57-2.93,12.94c0,6.92,2.37,12.4,7.1,16.43c4.73,4.03,11.19,6.05,19.38,6.05
			C42.26,82.59,49.46,79.81,53.84,74.25z M19.94,61.33v0.44c0,2.24,0.51,4.02,1.53,5.35c1.02,1.33,2.37,1.99,4.04,1.99
			c2.98,0,5.37-1.68,7.15-5.05c1.78-3.37,2.68-6.78,2.68-10.25c0-2.24-0.53-4.01-1.6-5.33c-1.06-1.32-2.48-1.98-4.26-1.98
			c-2.63,0-4.88,1.41-6.74,4.22C20.88,53.52,19.94,57.06,19.94,61.33z"/>
		<path class="st0" d="M55.87,12.01h9.68L68.2,0h5.9l-2.63,12.01h11.12L85.16,0h5.96l-2.57,12.01h5.27v5.96h-6.44l-1.99,9.53h8.43
			v5.9h-9.5l-2.64,11.89h-5.89l2.56-11.89H67.13l-2.48,11.89h-5.96l2.49-11.89h-5.32v-5.9h6.55l2-9.53h-8.55V12.01z M70.35,17.97
			l-1.97,9.47h11.11l2.03-9.47H70.35z"/>
		<path class="st0" d="M91.46,38.98h4.58v5.33c3.28,0.19,6.98,1.79,11.1,4.8l-4.52,5.86c-2.74-1.92-4.93-3.04-6.59-3.36v10.36
			c3.99,1.09,6.96,2.74,8.89,4.95c1.93,2.21,2.9,4.76,2.9,7.65c0,3.09-1.01,5.71-3.03,7.84c-2.02,2.13-4.92,3.51-8.7,4.14v9.47
			h-4.58v-9.66c-2.89-0.27-5.15-0.77-6.79-1.51c-1.64-0.73-3.34-1.85-5.1-3.36l4.05-5.99c3.03,2.05,5.62,3.25,7.78,3.61v-9.75
			c-4.47-1.82-7.47-3.71-9-5.68c-1.53-1.96-2.29-4.36-2.29-7.18c0-2.72,0.97-5.37,2.92-7.95c1.94-2.58,4.74-4.06,8.37-4.44V38.98z
			 M91.4,60.5v-9.19c-0.94,0.17-1.72,0.69-2.34,1.55c-0.62,0.87-0.93,1.74-0.93,2.62C88.14,57.63,89.22,59.31,91.4,60.5z
			 M96.16,70.72l-0.06,0.06v8.78c2.43-0.44,3.64-1.79,3.64-4.05C99.74,73.38,98.55,71.78,96.16,70.72z"/>
		<path class="st0" d="M104.62,16.69c0-4.22,0.99-7.6,2.98-10.14c1.99-2.54,4.61-3.81,7.87-3.81c3.16,0,5.73,1.29,7.73,3.86
			c2,2.57,2.99,5.92,2.99,10.03c0,4.18-0.99,7.56-2.96,10.13s-4.54,3.86-7.7,3.86c-3.22,0-5.84-1.29-7.87-3.87
			C105.63,24.16,104.62,20.81,104.62,16.69z M120.2,17.13c0-4.03-0.47-6.7-1.41-8s-2.05-1.94-3.32-1.94c-1.8,0-3.06,0.76-3.79,2.27
			s-1.1,4.03-1.1,7.54c0,6.08,1.63,9.13,4.89,9.13C118.62,26.13,120.2,23.13,120.2,17.13z M140.91,2.67h5.07l-25.51,49.8h-5
			L140.91,2.67z M135.38,39.05c0-4.37,0.99-7.9,2.96-10.6c1.98-2.7,4.54-4.05,7.7-4.05c3.14,0,5.72,1.32,7.75,3.95
			s3.04,6.04,3.04,10.22c0,3.99-1.05,7.3-3.14,9.91c-2.09,2.61-4.7,3.92-7.84,3.92c-3.01,0-5.51-1.27-7.49-3.79
			C136.37,46.08,135.38,42.89,135.38,39.05z M150.78,38.64c0-3.34-0.36-5.79-1.07-7.32c-0.71-1.54-1.87-2.3-3.48-2.3
			c-3.3,0-4.95,3.17-4.95,9.5c0,3.22,0.39,5.58,1.16,7.07c0.77,1.49,2,2.24,3.67,2.24C149.22,47.83,150.78,44.77,150.78,38.64z"/>
		<path class="st0" d="M160.13,74.05c0-1.42,0.49-2.62,1.46-3.6c0.97-0.98,2.16-1.47,3.56-1.47c1.38,0,2.56,0.5,3.54,1.48
			c0.98,0.99,1.47,2.18,1.47,3.58c0,1.35-0.49,2.52-1.47,3.5s-2.16,1.47-3.54,1.47c-1.4,0-2.59-0.48-3.56-1.45
			C160.62,76.6,160.13,75.42,160.13,74.05z M160.66,37.28h8.87v27.19h-8.87V37.28z"/>
	</g>
</g>
</svg>
