<?xml version="1.0" encoding="utf-8"?>
<!-- Generator: Adobe Illustrator 23.0.4, SVG Export Plug-In . SVG Version: 6.00 Build 0)  -->
<svg version="1.1" id="Layer_1" xmlns="http://www.w3.org/2000/svg" xmlns:xlink="http://www.w3.org/1999/xlink" x="0px" y="0px"
	 viewBox="0 0 162.85 147.56" style="enable-background:new 0 0 162.85 147.56;" xml:space="preserve">
<style type="text/css">
	.st0{fill:#FFFFFF;}
	.st1{fill:#1E1E1E;}
</style>
<g>
	<path class="st0" d="M60.74,135.46c-1.92-1.47-3.3-3.35-4.62-5.25c-4.11-5.94-7.08-12.43-9-19.39c-0.43-1.58-1.18-2.86-2.32-4.04
		c-5.06-5.26-10.04-10.6-14.34-16.52c-4.78-6.56-4.55-12.44,1.61-17.75c5.81-5.01,7.91-11.38,8.78-18.5
		c0.45-3.63,0.68-7.26,0.07-10.91c-1.37-8.19-8.33-14.85-16.52-15.57c-1.57-0.14-2.18-0.83-2.42-2.23
		c-0.84-4.93-0.81-9.86-0.08-14.8c0.22-1.47,0.74-1.74,2-0.85c3.31,2.36,5.85,5.42,8.07,8.77c6.31,9.52,10.15,20.11,13.49,30.94
		c3.24,10.51,4.53,21.39,6.18,32.21c2.34,15.3,4.62,30.61,6.96,45.92C59.02,130.19,59.97,132.78,60.74,135.46z"/>
	<path class="st0" d="M102.52,135.7c3.28-11.97,4.09-24.06,6.17-35.9c2.73-15.59,4.46-31.36,7.88-46.83
		c2.2-9.92,5.5-19.48,10.32-28.46c2.98-5.56,6.52-10.7,11.61-14.6c1.76-1.35,2.1-1.26,2.43,0.85c0.74,4.8,0.73,9.6-0.09,14.39
		c-0.21,1.21-0.53,2.14-2.09,2.34c-10.04,1.27-16.78,8.52-17.19,18.54c-0.22,5.54,0.49,11,2.15,16.3c1.07,3.41,2.77,6.44,5.62,8.72
		c0.8,0.64,1.53,1.39,2.23,2.14c4.88,5.21,5.32,10.39,1.26,16.22c-4.26,6.12-9.4,11.52-14.5,16.93c-1.36,1.45-2.3,2.97-2.85,4.89
		c-2.52,8.7-6.43,16.68-12.48,23.52C102.77,135.02,102.67,135.39,102.52,135.7z"/>
	<path class="st0" d="M55.94,47.14c1.53-8.04,4.67-15.15,11.35-20.24c1.35-1.02,2.15-2.15,2.62-3.75c1.28-4.46,2.98-8.79,6.19-12.24
		c4.57-4.91,6.19-4.78,10.65,0.05c3.15,3.41,4.85,7.65,6.12,12.05c0.48,1.67,1.3,2.86,2.71,3.93c6.48,4.94,9.67,11.81,11.16,19.63
		c0.16,0.84-0.09,1.64-0.3,2.44c-0.95,3.73-1.95,7.46-2.54,11.27c-0.21,1.35-0.64,1.72-1.79,0.68c-2.54-2.28-5.57-3.21-8.96-2.96
		c-1.95,0.14-2.69-0.65-2.65-2.64c0.13-6.41-0.79-12.59-3.78-18.41c-0.68-1.33-0.54-3.09-0.72-4.65c-0.41-3.44-1.18-6.78-2.71-9.91
		c-0.39-0.8-0.77-1.73-1.82-1.78c-1.19-0.05-1.57,0.99-1.99,1.83c-1.91,3.9-2.56,8.11-2.96,12.38c-0.07,0.75-0.08,1.58-0.41,2.2
		c-3.12,5.76-3.93,11.99-3.8,18.39c0.04,2.07-0.83,2.7-2.71,2.58c-3.39-0.23-6.37,0.78-8.96,3.01c-0.44,0.38-1.26,1.29-1.51,0.01
		C58.24,56.36,57.04,51.77,55.94,47.14z"/>
	<path class="st0" d="M77.11,146.46c-0.24,1.3-1,1.28-1.7,0.79c-4.17-2.93-8.33-5.81-10.13-11.03c-3.12-9.01-5.46-18.2-6.96-27.59
		C56,94.16,54.08,79.62,51.62,65.17c-2.55-15-6.73-29.54-14.49-42.81C33.7,16.51,29.81,11,24.41,6.77
		c-1.38-1.08-1.05-2.16-0.62-3.45c1.37-4.12,1.91-4.28,4.85-1.16c10.74,11.4,17.73,24.95,22.65,39.68
		c4.32,12.92,6.69,26.26,8.61,39.7c1.68,11.78,2.74,23.65,5.38,35.29c2.23,9.86,5.45,19.34,10.96,27.92
		C76.61,145.32,76.86,145.96,77.11,146.46z"/>
	<path class="st0" d="M139.53,4.89c0.1,0.93-0.35,1.37-0.89,1.71c-7.34,4.74-11.14,12.15-15.01,19.57
		c-8.13,15.57-11.81,32.35-14.21,49.57c-2.08,14.93-4.29,29.85-7.36,44.62c-1.12,5.39-2.77,10.65-4.54,15.88
		c-1.72,5.08-5.81,7.87-9.82,10.79c-0.44,0.32-1.01,0.63-1.5,0.11c-0.44-0.47-0.2-1.03,0.03-1.54c0.08-0.19,0.18-0.37,0.29-0.55
		c7.67-12.07,11.02-25.55,13.06-39.5c2.24-15.33,4.41-30.67,7.15-45.92c3.84-21.35,12.55-40.56,26.85-57.06
		c0.92-1.06,1.71-2.78,3.28-2.51c1.73,0.29,1.68,2.31,2.3,3.63C139.39,4.13,139.46,4.62,139.53,4.89z"/>
	<path class="st0" d="M73.3,10.33c-3.22,3.9-4.9,8.32-6.26,12.88c-0.16,0.55-0.57,0.93-1.01,1.27c-5.38,4.01-8.82,9.38-11,15.64
		c-0.13,0.38-0.19,0.81-0.62,1.04c-0.58-0.14-0.6-0.68-0.75-1.11c-2.08-5.92-4.51-11.69-7.48-17.22c-0.75-1.4-0.68-2.36,0.72-3.29
		c7.78-5.19,16.46-7.88,25.57-9.44C72.58,10.07,72.71,10.16,73.3,10.33z"/>
	<path class="st0" d="M108.38,41.39c-0.88-2.07-1.59-3.93-2.46-5.71c-2.07-4.27-4.9-7.97-8.71-10.85c-0.86-0.65-1.44-1.41-1.76-2.46
		c-1.14-3.77-2.49-7.45-4.76-10.72c-0.23-0.33-0.57-0.71-0.36-1.12c0.29-0.55,0.85-0.35,1.3-0.26c8.57,1.7,16.83,4.22,24.15,9.2
		c1.03,0.7,1.87,1.4,1.09,2.85c-3.18,5.89-5.74,12.06-7.96,18.37C108.85,40.86,108.68,41,108.38,41.39z"/>
	<path class="st0" d="M81.39,25.61c1.42,2.58,1.9,5.33,2.07,8.13c0.13,2.16,0.61,4.12,1.58,6.1c2.52,5.12,2.92,10.69,2.88,16.3
		c-0.01,1.29-0.71,1.85-1.96,1.85c-3.03,0-6.05-0.01-9.08,0c-1.37,0.01-2.02-0.65-2.01-2.02c0.04-6.03,0.47-11.98,3.52-17.39
		c0.82-1.46,0.78-3.04,0.91-4.6C79.55,31.1,79.98,28.28,81.39,25.61z"/>
	<path class="st0" d="M154.05,63.77c-5.97-10.77-13.53-20.4-21.71-29.56c-0.92-1.03-1.63-0.97-2.59-0.14
		c-3.22,2.82-4.95,6.38-5.37,10.59c-0.25,2.54-0.2,5.1,0.07,7.63c0.73,7.03,2.06,13.79,8.33,18.36c1.13,0.82,1.97,2.12,2.78,3.3
		c3.49,5.14,3.68,10.41,0.31,15.67c-3.96,6.17-8.95,11.52-13.99,16.79c-2.21,2.31-3.77,4.77-4.54,7.88
		c-0.73,2.96-0.87,3.07,1.97,4.35c8.22,3.7,16.7,3.8,25.22,1.35c12.1-3.47,18.35-11.93,18.32-26.55
		C162.37,84.23,159.51,73.63,154.05,63.77z M152.64,102.31c-0.53,0.86-1.15,2.02-2.39,1.29c-1.17-0.7-0.41-1.68,0.07-2.51
		c1.97-3.46,1.54-7.21,1.16-10.9c-0.33-3.22-1.13-6.37-2.1-9.46c-0.17-0.53-0.36-1.05-0.47-1.58c-0.18-0.83-0.33-1.75,0.73-2.07
		c1.06-0.32,1.47,0.52,1.75,1.33c1.28,3.72,2.26,7.52,2.74,11.43c0.19,1.5,0.29,3.01,0.4,4.19
		C154.4,97.13,154.14,99.88,152.64,102.31z"/>
	<path class="st0" d="M45.3,113.61c-0.19-0.59-0.44-1.17-0.53-1.78c-0.28-1.75-1.18-1.87-2.64-1.25c-3.07,1.29-6.3,1.99-9.6,2.33
		c-7.39,0.77-14.08-0.94-19.84-5.78c-0.69-0.58-1.49-1.3-0.72-2.25c0.78-0.95,1.61-0.31,2.32,0.27c7.73,6.25,16.33,6.55,25.37,3.68
		c2.51-0.8,2.57-1.1,0.71-3.06c-4.39-4.66-8.65-9.44-12.39-14.65c-1.49-2.08-2.81-4.26-3.22-6.85c-0.97-6.04,1.76-10.65,6.07-14.33
		c3.55-3.03,5.54-6.75,6.51-11.18c0.74-3.37,1.18-6.78,1.18-10.49c0.31-5.31-1.12-10.23-5.32-14.15c-1.02-0.95-1.76-1.01-2.73,0.09
		c-8.14,9.11-15.7,18.65-21.6,29.39C3,74.28-0.35,85.68,0.03,97.97c0.21,6.63,2.55,12.55,7.93,16.6
		c10.74,8.08,22.59,9.04,34.98,4.37C46.56,117.58,46.49,117.38,45.3,113.61z M10.61,99.37c0.09,0.68-0.27,1.24-0.96,1.4
		c-0.84,0.19-1.26-0.37-1.5-1.08c-0.39-1.13-0.32-2.31-0.36-3.47c0.05-1.17-0.03-2.35,0.4-3.47c0.23-0.62,0.61-1.13,1.35-1.04
		c0.83,0.11,1.19,0.73,1.08,1.49C10.33,95.26,10.34,97.31,10.61,99.37z"/>
	<path class="st0" d="M100.42,62.87c-1.69-1.57-3.72-2.3-6.02-2.3c-4.27,0.01-8.54,0-12.81,0c-4.27,0-8.54,0.01-12.81-0.01
		c-1.69-0.01-3.28,0.34-4.76,1.17c-3.08,1.72-4.23,3.99-3.7,7.46c2.08,13.54,4.18,27.08,6.25,40.62c0.2,1.3,0.74,2.29,1.8,3.1
		c7.51,5.81,18.46,5.84,25.99,0.08c1.12-0.86,1.69-1.89,1.9-3.27c2.07-13.61,4.11-27.23,6.33-40.82
		C103.02,66.29,102.17,64.5,100.42,62.87z M81.31,63.84c2.12,0.05,3.8,1.77,3.74,3.85c-0.06,2.09-1.8,3.71-3.93,3.66
		c-2.14-0.05-3.81-1.77-3.74-3.85C77.45,65.41,79.18,63.79,81.31,63.84z M75.85,95.07c0.24-0.59,0.74-0.82,1.34-0.73
		c0.47,0.07,0.96,0.18,1.38,0.4c1.7,0.87,3.36,1,5.13,0.12c0.83-0.42,1.99-0.85,2.48,0.41c0.48,1.25-0.67,1.63-1.55,2
		c-1.07,0.45-2.18,0.83-3.2,1.22c-1.88-0.43-3.54-1.07-5.08-1.98C75.83,96.21,75.6,95.67,75.85,95.07z M77.5,107.73
		c2.25,0.37,3.92,0.42,5.69,0.27C81.71,109.75,79.99,109.76,77.5,107.73z M87.15,105.12c-4.54,0.3-9.07,0.51-13.58-0.5
		c2.19-0.82,4.21-2.38,6.75-1.26c0.24,0.11,0.59,0.21,0.8,0.11c2.64-1.28,4.9,0.32,7.3,0.89C88.5,105.45,87.46,104.69,87.15,105.12z
		"/>
	<path class="st1" d="M87.15,105.12c0.42-0.26,0.84-0.51,1.26-0.77C88.61,105.62,87.62,104.96,87.15,105.12z"/>
</g>
</svg>
